<?xml version="1.0" standalone="no"?>
<!DOCTYPE svg PUBLIC "-//W3C//DTD SVG 20010904//EN"
 "http://www.w3.org/TR/2001/REC-SVG-20010904/DTD/svg10.dtd">
<svg version="1.0" xmlns="http://www.w3.org/2000/svg"
 width="224.000000pt" height="224.000000pt" viewBox="0 0 224.000000 224.000000"
 preserveAspectRatio="xMidYMid meet">

<g transform="translate(0.000000,224.000000) scale(0.100000,-0.100000)"
fill="#000000" stroke="none">
<path d="M1020 2173 c-83 -14 -85 -16 -97 -109 -23 -164 -104 -284 -239 -351
l-75 -36 27 -28 c53 -56 74 -55 248 1 150 48 158 50 187 35 37 -19 54 -54 45
-91 -5 -18 -56 -76 -135 -154 -144 -142 -183 -203 -201 -316 -10 -57 -9 -82 4
-143 21 -100 64 -168 160 -255 177 -159 216 -201 241 -249 59 -119 14 -271
-96 -327 -38 -20 -111 -26 -156 -14 -33 9 -28 24 7 24 44 0 90 45 97 96 15
111 -108 177 -192 103 -63 -55 -66 -144 -8 -218 80 -99 252 -117 410 -41 88
42 147 99 190 188 38 76 38 77 38 202 0 115 -2 130 -27 182 -15 32 -38 69 -52
83 -31 31 -32 35 -6 35 39 0 117 49 168 104 54 59 93 149 74 168 -7 7 -72 9
-181 6 -94 -2 -167 -1 -163 3 4 4 37 16 75 29 l67 22 0 393 c0 365 -1 397 -20
458 -33 107 -115 172 -245 196 -59 11 -98 12 -145 4z m-19 -329 c19 -23 -1
-49 -37 -49 -30 0 -42 20 -30 51 7 19 50 18 67 -2z"/>
</g>
</svg>
